# xmcd
# 
# Track frame offsets:
#     182
#     9555
#     22500
#     31535
#     44647
#     55687
#     70690
#     82745
#     93060
#     105307
#     118447
#     130022
#     143860
#     154730
#     167340
#     178515
#     189315
#     205442
#     216525
#     228162
#     241737
#     252140
#     267090
#     276195
# 
# Disc length: 3842
# 
# Revision: 1
# Processed by: cddbd v1.5.2PL0 Copyright (c) Steve Scherf et al.
# Submitted via: fre:ac v1.1beta1pre5
# 
DISCID=2e0f0018
DTITLE=Jim and Jesse - Jim and Jesse - The Jim and Jesse Story
DYEAR=0
DGENRE=
TTITLE0=The Midnight Train
TTITLE1=Drifting and Dreaming of You
TTITLE2=Border Ride
TTITLE3=Just Wondering Why
TTITLE4=Golden Rocket
TTITLE5=Grave in the Valley
TTITLE6=My Little Honeysuckle Rose
TTITLE7=Sleepy-Eyed John
TTITLE8=Let Me Whisper
TTITLE9=Somewhere Down South
TTITLE10=When it's Time for the Whippoorwill to Sing
TTITLE11=Great Speckled Bird
TTITLE12=A Memory Of You
TTITLE13=Paradise
TTITLE14=The Girl I Left Behind Me
TTITLE15=Diesel On My Tail
TTITLE16=Remember Me (When the Candlelights are Gleaming)
TTITLE17=Are You Missing Me?
TTITLE18=I Will Always be Waiting for You
TTITLE19=The Flame of Love
TTITLE20=Gosh, I Miss You all the Time
TTITLE21=Farewell Blues
TTITLE22=I Want to be Loved
TTITLE23=Swing Low Sweet Chariot
EXTD=
EXTT0=
EXTT1=
EXTT2=
EXTT3=
EXTT4=
EXTT5=
EXTT6=
EXTT7=
EXTT8=
EXTT9=
EXTT10=
EXTT11=
EXTT12=
EXTT13=
EXTT14=
EXTT15=
EXTT16=
EXTT17=
EXTT18=
EXTT19=
EXTT20=
EXTT21=
EXTT22=
EXTT23=
PLAYORDER=
